<svg viewBox="0 0 1920 200" aria-label="Wheel of Heaven" fill='currentColor' stroke='currentColor' version="1.1" xmlns="http://www.w3.org/2000/svg" xmlns:svg="http://www.w3.org/2000/svg"> <g><path d="M 65.300069,162.89079 34.409341,37.109208 H 50.793374 L 75.54009,148.04276 h 3.754674 L 102.67614,37.109208 h 14.16537 l 23.38138,110.933552 h 3.75467 L 168.72428,37.109208 h 16.38403 L 154.21758,162.89079 H 129.8122 L 109.67349,70.047941 89.705452,162.89079 Z m 180.875011,0 V 37.109208 h 15.5307 v 52.736106 h 62.29346 V 37.109208 h 15.5307 V 162.89079 h -15.5307 v -59.22145 h -62.29346 v 59.22145 z m 166.88013,0 V 37.109208 h 82.94417 v 14.336029 h -67.41347 v 38.22941 h 60.24545 v 14.165363 h -60.24545 v 44.71475 h 67.41347 v 14.33603 z m 150.6669,0 V 37.109208 h 82.94417 v 14.336029 h -67.41347 v 38.22941 h 60.24545 v 14.165363 h -60.24545 v 44.71475 h 67.41347 v 14.33603 z m 150.66687,0 V 37.109208 h 15.5307 V 148.55476 h 63.31746 v 14.33603 z m 303.17902,0 V 37.109208 h 15.5307 v 52.736106 h 62.2935 V 37.109208 h 15.5306 V 162.89079 h -15.5306 v -59.22145 h -62.2935 v 59.22145 z m 166.8801,0 V 37.109208 h 82.9442 v 14.336029 h -67.4135 v 38.22941 h 60.2455 v 14.165363 h -60.2455 v 44.71475 h 67.4135 v 14.33603 z m 138.2082,0 42.4961,-125.781582 h 24.064 l 42.4961,125.781582 h -16.2133 l -10.7521,-32.76806 h -55.1254 l -10.5814,32.76806 z m 31.5734,-46.42142 h 46.0801 l -21.1627,-64.682799 h -3.9254 z m 160.2243,46.42142 -42.6667,-125.781582 h 16.384 l 36.3521,110.933552 h 3.7547 l 36.352,-110.933552 h 16.3841 l -42.6668,125.781582 z m 127.6269,0 V 37.109208 h 82.9442 v 14.336029 h -67.4135 v 38.22941 h 60.2455 v 14.165363 h -60.2455 v 44.71475 h 67.4135 v 14.33603 z m 150.6669,0 V 37.109208 h 21.1627 L 1870.06,138.31474 V 37.109208 h 15.5307 V 162.89079 h -18.4321 l -55.1254,-99.328195 h -3.7547 v 99.328195 z" /> <path d="m 892.2717,90.391659 -17.9201,-17.92004 v -17.44237 l 17.9201,-17.92004 h 21.90253 l 17.9201,17.92004 v 17.44237 l -17.9201,17.92004 z m 6.9973,-13.82403 h 7.9079 l 9.38663,-9.38669 v -6.86101 l -9.38663,-9.38669 h -7.9079 l -9.3867,9.38669 v 6.64644 0.21457 z M 879.08475,162.89079 878.922,102.61534 h 48.63036 v 14.33603 H 894.4527 v 11.47067 l 17.99866,-0.42653 v 14.16536 l -17.99866,0.42653 0.16275,20.30339 z" /></g></svg>