<?xml version="1.0" encoding="UTF-8" standalone="no"?>
<svg
   version="1.0"
   width="192.000000pt"
   height="192.000000pt"
   viewBox="0 0 192.000000 192.000000"
   preserveAspectRatio="xMidYMid meet"
   id="svg8"
   sodipodi:docname="favicon.svg"
   inkscape:version="1.3.2 (091e20ef0f, 2023-11-25)"
   xmlns:inkscape="http://www.inkscape.org/namespaces/inkscape"
   xmlns:sodipodi="http://sodipodi.sourceforge.net/DTD/sodipodi-0.dtd"
   xmlns="http://www.w3.org/2000/svg"
   xmlns:svg="http://www.w3.org/2000/svg">
  <defs
     id="defs8" />
  <sodipodi:namedview
     id="namedview8"
     pagecolor="#ffffff"
     bordercolor="#cccccc"
     borderopacity="1"
     inkscape:showpageshadow="0"
     inkscape:pageopacity="1"
     inkscape:pagecheckerboard="0"
     inkscape:deskcolor="#d1d1d1"
     inkscape:document-units="pt"
     inkscape:zoom="0.921875"
     inkscape:cx="127.45763"
     inkscape:cy="128"
     inkscape:window-width="1260"
     inkscape:window-height="677"
     inkscape:window-x="0"
     inkscape:window-y="0"
     inkscape:window-maximized="1"
     inkscape:current-layer="g8" />
  <g
     transform="translate(0.000000,192.000000) scale(0.100000,-0.100000)"
     fill="#000000"
     stroke="none"
     id="g8">
    <rect
       style="fill:#ffffff;stroke-width:7.32095"
       id="rect8"
       width="1540"
       height="1700.2421"
       x="200"
       y="-1841.5"
       transform="scale(0.99999998,-0.99999998)" />
    <path
       d="M213 1902 c-63 -22 -115 -61 -154 -115 -60 -83 -60 -78 -57 -818 l3 -674 23 -50 c29 -63 83 -119 147 -153 l50 -27 735 0 735 0 50 27 c65 34 127 101 151 164 18 46 19 84 19 739 l0 690 -28 57 c-32 65 -89 121 -156 152 -45 21 -54 21 -756 23 -661 2 -714 1 -762 -15z m783 -136 c19 -15 19 -15 -1 -30 -11 -8 -86 -52 -167 -98 l-147 -83 -1 -58 c0 -57 0 -57 23 -46 12 6 113 63 224 126 l202 114 250 -143 c232 -132 251 -145 251 -170 0 -16 -5 -28 -10 -28 -6 0 -83 41 -171 92 l-161 92 -44 -24 c-25 -13 -43 -28 -41 -34 3 -9 218 -138 397 -238 l30 -17 0 -292 c0 -266 -2 -293 -17 -305 -10 -7 -21 -14 -25 -14 -5 0 -8 88 -8 195 l0 194 -43 26 c-24 14 -49 25 -55 25 -9 0 -12 -68 -12 -254 l0 -253 -247 -143 c-210 -120 -252 -141 -272 -133 -14 4 -24 12 -24 18 0 5 75 52 167 105 l166 95 0 58 c0 31 -2 57 -4 57 -3 0 -71 -39 -153 -86 -81 -47 -182 -103 -224 -124 l-75 -38 -247 141 c-230 131 -247 143 -247 169 0 15 3 28 8 28 4 0 73 -38 153 -84 79 -46 154 -86 166 -90 21 -7 95 22 107 42 2 4 -93 64 -212 132 l-217 125 -3 296 -2 296 25 11 25 12 0 -198 0 -197 48 -27 49 -27 6 112 c4 61 7 177 7 257 l0 145 243 142 c133 78 247 142 253 142 5 1 19 -5 30 -13z"
       id="path1" />
    <path
       d="M900 1496 l-215 -124 -3 -56 c-2 -31 0 -56 5 -56 4 0 34 14 68 31 l60 32 135 -78 c74 -42 138 -79 143 -82 4 -2 7 22 7 54 l0 59 -90 53 c-49 29 -90 55 -90 56 0 2 68 43 150 90 83 48 150 90 150 94 0 10 -74 51 -91 51 -8 0 -111 -56 -229 -124z"
       id="path2" />
    <path
       d="M563 1484 l-43 -26 0 -257 0 -258 50 -27 49 -27 3 73 3 72 125 74 c166 97 163 94 107 126 l-46 27 -87 -50 c-48 -27 -91 -48 -96 -45 -4 3 -8 81 -8 175 0 93 -3 169 -7 169 -5 -1 -27 -12 -50 -26z"
       id="path3" />
    <path
       d="M1077 1416 c-20 -12 -40 -25 -43 -28 -2 -3 21 -20 53 -38 32 -18 61 -38 65 -44 4 -6 8 -82 8 -169 l0 -158 50 28 50 28 0 103 c0 56 4 102 8 102 4 0 74 -38 154 -84 l146 -83 5 40 c3 22 2 48 -2 59 -7 19 -423 268 -446 268 -5 0 -27 -11 -48 -24z"
       id="path4" />
    <path
       d="M898 1127 l-58 -32 0 -77 0 -77 65 -36 64 -36 66 36 65 37 0 77 0 78 -59 32 c-32 17 -65 31 -72 31 -8 0 -40 -15 -71 -33z"
       id="path5" />
    <path
       d="M1316 1127 c-3 -12 -6 -45 -6 -74 l0 -51 -132 -79 c-73 -43 -133 -83 -132 -88 0 -6 20 -21 43 -33 l42 -24 87 50 87 49 8 -170 c4 -94 9 -172 11 -175 3 -2 24 7 48 20 l43 23 2 260 3 260 -49 27 -49 27 -6 -22z"
       id="path6" />
    <path
       d="M718 1025 l-36 -24 -4 -95 c-1 -52 -6 -97 -10 -101 -3 -4 -53 20 -110 53 -107 61 -183 102 -193 102 -3 0 -5 -24 -5 -53 l0 -53 220 -127 c121 -70 225 -127 231 -127 20 0 89 44 86 54 -2 6 -29 26 -60 44 l-57 33 0 159 c0 177 1 176 -62 135z"
       id="path7" />
    <path
       d="M842 818 l3 -62 84 -48 c47 -27 86 -50 88 -52 2 -2 -64 -43 -147 -92 -82 -49 -150 -92 -150 -96 0 -9 74 -48 92 -48 7 0 108 54 224 121 150 86 214 127 218 143 8 31 7 96 -1 96 -5 0 -30 -14 -58 -30 -27 -16 -57 -30 -65 -30 -8 0 -77 36 -153 80 l-138 79 3 -61z"
       id="path8" />
  </g>
</svg>
