<!-- icon666.com - MILLIONS vector ICONS FREE --><svg version="1.1" id="Layer_1" xmlns="http://www.w3.org/2000/svg" xmlns:xlink="http://www.w3.org/1999/xlink" x="0px" y="0px" viewBox="0 0 512.004 512.004" style="enable-background:new 0 0 512.004 512.004;" xml:space="preserve"><g><g><g><path d="M508.887,362.238l-81.784-81.77c-1.941-1.932-4.598-3.127-7.549-3.127c-2.932,0-5.608,1.195-7.549,3.117l-74.226,74.24 l-74.226-74.23c-1.932-1.932-4.607-3.127-7.549-3.127c-2.951,0-5.618,1.195-7.539,3.127l-74.235,74.23l-74.235-74.23 c-1.941-1.932-4.598-3.127-7.549-3.127s-5.608,1.195-7.549,3.127l-81.779,81.77c-4.157,4.176-4.157,10.922,0,15.088 c4.171,4.167,10.921,4.167,15.093,0l74.235-74.234l74.235,74.234c4.167,4.167,10.921,4.167,15.088,0l74.235-74.234l74.234,74.234 c4.157,4.167,10.922,4.157,15.099-0.01l74.216-74.225l74.234,74.234c4.177,4.167,10.922,4.167,15.099,0 C513.043,373.16,513.043,366.404,508.887,362.238z"></path><path d="M18.211,231.543l74.235-74.235l74.235,74.235c4.167,4.167,10.921,4.167,15.078,0l74.235-74.235l74.244,74.235 c4.157,4.167,10.922,4.157,15.079-0.005l74.235-74.235l74.234,74.235c4.177,4.171,10.922,4.171,15.078,0 c4.177-4.167,4.177-10.917,0-15.079L427.1,134.675c-1.941-1.926-4.598-3.122-7.549-3.122c-2.932,0-5.608,1.196-7.549,3.122 l-74.226,74.235l-74.235-74.235c-1.922-1.926-4.598-3.122-7.539-3.122c-2.951,0-5.618,1.196-7.539,3.122l-74.235,74.235 l-74.235-74.235c-1.941-1.926-4.598-3.122-7.549-3.122s-5.608,1.196-7.549,3.122L3.118,216.459 c-4.157,4.162-4.157,10.922,0,15.083C7.29,235.709,14.04,235.709,18.211,231.543z"></path></g></g></g></svg>