<!-- icon666.com - MILLIONS vector ICONS FREE --><svg version="1.1" id="Layer_1" xmlns="http://www.w3.org/2000/svg" xmlns:xlink="http://www.w3.org/1999/xlink" x="0px" y="0px" viewBox="0 0 512 512" style="enable-background:new 0 0 512 512;" xml:space="preserve"><g><g><path d="M394.656,0c-50.5,0-93.562,31.922-110.094,76.703c-1.469,4-2.75,8.188-3.781,12.375 c-6.562,22.797-16.938,73.703-24.781,156.516c-7.844-82.812-18.219-133.719-24.781-156.516c-1.031-4.188-2.312-8.375-3.781-12.375 C210.906,31.922,167.844,0,117.344,0C52.531,0,0,52.531,0,117.344c0,26.328,8.688,50.641,23.344,70.219 C25.281,190.25,28.438,192,32,192c5.906,0,10.656-4.766,10.656-10.656c0-2.344-0.75-4.5-2.031-6.25 c-5.844-7.75-10.438-16.266-13.688-25.375c-3.719-10.359-5.594-21.25-5.594-32.375c0-25.656,9.969-49.75,28.094-67.891 c18.156-18.125,42.25-28.109,67.906-28.109c20,0,39.188,6.094,55.438,17.625c15.938,11.297,27.906,26.891,34.656,45.109 c1.188,3.281,2.25,6.688,3.094,10.125l0.094,0.391l0.094,0.375c5.719,19.922,14.375,65.203,21.438,132.547 c8.219,77.938,12.625,166.375,13.125,263.156l0.062,10.672c0,5.891,4.75,10.656,10.656,10.656s10.656-4.766,10.656-10.656 l0.062-10.672c0.5-96.781,4.906-185.219,13.094-263.156c7.094-67.344,15.75-112.625,21.469-132.547l0.094-0.375l0.094-0.391 c0.844-3.438,1.906-6.844,3.094-10.125c6.75-18.219,18.719-33.812,34.656-45.109c16.25-11.531,35.438-17.625,55.438-17.625 c25.656,0,49.75,9.984,67.906,28.109c18.125,18.141,28.094,42.234,28.094,67.891c0,11.125-1.875,22.016-5.594,32.375 c-3.25,9.109-7.844,17.625-13.688,25.375c-1.281,1.75-2.031,3.906-2.031,6.25c0,5.891,4.75,10.656,10.656,10.656 c3.562,0,6.719-1.75,8.656-4.438C503.312,167.969,512,143.672,512,117.344C512,52.531,459.469,0,394.656,0z"></path></g></g></svg>