<!-- icon666.com - MILLIONS vector ICONS FREE --><svg version="1.1" id="Layer_1" xmlns="http://www.w3.org/2000/svg" xmlns:xlink="http://www.w3.org/1999/xlink" x="0px" y="0px" viewBox="0 0 512 512" style="enable-background:new 0 0 512 512;" xml:space="preserve"><g><g><g><path d="M96,313.621c53.016,0,96-42.984,96-96c0-40.625-25.234-75.352-60.875-89.375c40.562-10.102,82.328-15.203,124.875-15.203 c69.594,0,137.094,13.625,200.609,40.492c13.469,5.695,26.734,11.992,39.703,18.844c1.5,0.797,3.219,1.242,5.031,1.242 c5.891,0,10.656-4.773,10.656-10.664c0-3.992-2.188-7.477-5.438-9.305c-0.016-0.008-0.234-0.125-0.328-0.172 C431.516,114.043,346.375,91.707,256,91.707c-67.828,0-132.703,12.586-192.453,35.539C26.5,140.559,0,175.988,0,217.621 C0,270.637,42.984,313.621,96,313.621z M43.203,164.824c7.719-7.719,16.828-13.531,26.75-17.219l0.016,0.031 c0.531-0.203,1.062-0.406,1.594-0.609c7.75-2.672,15.984-4.078,24.438-4.078c19.953,0,38.703,7.766,52.797,21.875 c14.109,14.102,21.875,32.852,21.875,52.797c0,19.938-7.766,38.688-21.875,52.797C134.703,284.52,115.953,292.293,96,292.293 c-19.938,0-38.688-7.773-52.797-21.875c-14.094-14.109-21.859-32.859-21.859-52.797 C21.344,197.676,29.109,178.926,43.203,164.824z"></path><path d="M416,198.371c-53.016,0-96,42.984-96,96c0,40.625,25.234,75.359,60.875,89.375 c-40.547,10.109-82.312,15.203-124.875,15.203c-69.578,0-137.078-13.625-200.609-40.5c-13.469-5.688-26.734-11.969-39.703-18.828 c-1.5-0.797-3.203-1.25-5.016-1.25C4.781,338.371,0,343.137,0,349.043c0,3.984,2.203,7.469,5.453,9.297 c0.016,0.016,0.234,0.109,0.328,0.172c74.703,39.437,159.86,61.781,250.219,61.781c67.828,0,132.719-12.594,192.469-35.562 C485.516,371.434,512,335.996,512,294.371C512,241.355,469.016,198.371,416,198.371z M468.797,347.168 c-7.703,7.719-16.812,13.531-26.75,17.219l-0.016-0.031c-0.531,0.203-1.062,0.406-1.578,0.609 c-7.766,2.672-16,4.078-24.453,4.078c-19.938,0-38.688-7.766-52.797-21.875c-14.094-14.094-21.859-32.844-21.859-52.797 c0-19.945,7.766-38.695,21.859-52.797c14.109-14.102,32.859-21.867,52.797-21.867c19.953,0,38.703,7.766,52.797,21.867 c14.109,14.102,21.875,32.852,21.875,52.797C490.672,314.324,482.906,333.074,468.797,347.168z"></path></g></g></g></svg>