<!-- icon666.com - MILLIONS vector ICONS FREE --><svg version="1.1" id="Layer_1" xmlns="http://www.w3.org/2000/svg" xmlns:xlink="http://www.w3.org/1999/xlink" x="0px" y="0px" viewBox="0 0 512 512" style="enable-background:new 0 0 512 512;" xml:space="preserve"><g><g><path d="M421.312,252.449c-34.781,0-57.688,18.391-71.75,36.383L337.438,106.52c0-0.367-0.125-2.266-0.125-2.266 c-2.438-26.821-24.969-47.844-52.406-47.844c-2.125,0-4.219,0.125-6.281,0.367c-8.032,0.781-15.781,2.524-23.093,5.156 c-14,5.024-26.469,13.204-36.594,23.68c0,0-47.781,46.047-69.625,155.234C127.469,131.66,79.719,85.613,79.719,85.613h-0.031 C62.25,67.551,37.75,56.309,10.656,56.309C4.781,56.309,0,61.083,0,66.973c0,5.89,4.781,10.672,10.656,10.672 c20.438,0,39.5,8.093,53.688,22.796l1.781,1.828c4.281,4.688,19.188,22.234,34.375,54.985c11,23.766,19.781,50.414,26.094,79.211 c6.656,30.195,10.562,62.796,11.719,97.172l0.312,21.102c0,5.891,4.781,10.664,10.656,10.664c5.812,0,10.531-4.649,10.656-10.431 l0.406-21.335c1.125-34.376,5.062-66.978,11.688-97.172c6.344-28.797,15.125-55.445,26.125-79.211 c15.156-32.75,30.062-50.297,34.344-54.985l1.781-1.828C246.781,87.52,263,79.7,280.625,77.996 c1.405-0.187,2.812-0.258,4.281-0.258c16.124,0,29.406,12.25,31.094,27.938l0.219,3.078l14.125,212.657 c-27.313,50.679-65.969,90.609-110.688,113.929c-3.406,1.571-5.875,4.883-6.188,8.883c-0.438,5.875,3.969,10.984,9.844,11.438 c2.062,0.156,4.031-0.297,5.719-1.188c43.344-22.5,81.376-59.094,109.969-105.391c10.25,20.07,32.875,44.376,82.312,44.376 c50.095,0,90.688-31.563,90.688-70.501C512,284.021,471.407,252.449,421.312,252.449z M472.344,355.973 c-13.406,10.422-31.532,16.157-51.031,16.157c-26.781,0-46.438-8.328-58.438-24.767c-6.156-8.46-8.969-17.233-10.156-22.281 c0.5-1.219,1.156-2.664,1.938-4.258c0.125-0.242,0.219-0.483,0.344-0.727c2.75-5.539,6.97-12.844,12.844-20 c14.406-17.46,32.406-26.312,53.469-26.312c19.499,0,37.625,5.734,51.031,16.155c11.812,9.188,18.312,20.915,18.312,33.016 C490.656,335.059,484.156,346.786,472.344,355.973z"></path></g></g></svg>