<!-- icon666.com - MILLIONS vector ICONS FREE --><svg version="1.1" id="Layer_1" xmlns="http://www.w3.org/2000/svg" xmlns:xlink="http://www.w3.org/1999/xlink" x="0px" y="0px" viewBox="0 0 512 512" style="enable-background:new 0 0 512 512;" xml:space="preserve"><g><g><path d="M478.063,415.953c-5.891,0-10.672,4.781-10.672,10.672c0,35.297-28.719,64.031-64.031,64.031 c-35.297,0-64.016-28.734-64.016-64.031h0.109c-1.625-14.281-2.453-28.719-2.453-43.281c0-50.844,9.953-100.156,29.578-146.562 c4.562-10.766,9.641-21.359,15.203-31.688c8.5-18.406,13.297-39.016,13.297-60.609C395.078,64.688,330.391,0,250.594,0 S106.11,64.688,106.11,144.484c0,29.594,8.891,57.109,24.156,80.016c-3.594-0.422-7.25-0.641-10.953-0.641 c-53.047,0-96.047,43-96.047,96.047s43,96.047,96.047,96.047c53.031,0,96.031-43,96.031-96.047 c0-30.297-14.031-57.312-35.938-74.906v-0.016c-1.625-1.297-3.281-2.547-5-3.734c-3.781-3-7.422-6.219-10.891-9.688 c-23.266-23.266-36.062-54.188-36.062-87.078c0-32.89,12.797-63.828,36.062-87.078c23.266-23.266,54.188-36.078,87.078-36.078 s63.812,12.812,87.078,36.078c23.266,23.25,36.078,54.188,36.078,87.078c0,17.828-3.781,35.062-10.922,50.828 c-30.094,55.984-47.172,120.016-47.172,188.031c0,14.625,0.797,29.062,2.344,43.281C324.75,475.812,356.219,512,403.359,512 c47.156,0,85.375-38.234,85.375-85.375C488.734,420.734,483.953,415.953,478.063,415.953z M166.251,261.797 c2.031,1.656,4,3.406,5.875,5.297c14.109,14.109,21.875,32.859,21.875,52.812s-7.766,38.719-21.875,52.828 s-32.859,21.875-52.812,21.875c-19.953,0-38.719-7.766-52.828-21.875S44.61,339.859,44.61,319.906s7.766-38.703,21.875-52.812 s32.875-21.891,52.828-21.891c15.359,0,30,4.609,42.375,13.172C163.188,259.547,164.705,260.687,166.251,261.797z"></path></g></g></svg>