<!-- icon666.com - MILLIONS vector ICONS FREE --><svg version="1.1" id="Layer_1" xmlns="http://www.w3.org/2000/svg" xmlns:xlink="http://www.w3.org/1999/xlink" x="0px" y="0px" viewBox="0 0 512 512" style="enable-background:new 0 0 512 512;" xml:space="preserve"><g><g><g><path d="M501.328,394.656H10.672C4.781,394.656,0,399.438,0,405.328S4.781,416,10.672,416h490.656 c5.891,0,10.672-4.781,10.672-10.672S507.219,394.656,501.328,394.656z"></path><path d="M10.672,352h145.266c5.906,0,10.672-4.781,10.672-10.672c0-2.969-1.219-5.672-3.188-7.609 C140.562,309.812,128,278.531,128,245.328c0-34.188,13.312-66.328,37.484-90.516c24.188-24.172,56.328-37.484,90.516-37.484 s66.328,13.312,90.516,37.484C370.688,179,384,211.141,384,245.328c0,33.203-12.562,64.484-35.422,88.391 c-1.969,1.938-3.188,4.641-3.188,7.609c0,5.891,4.766,10.672,10.672,10.672h145.266c5.891,0,10.672-4.781,10.672-10.672 s-4.781-10.672-10.672-10.672H378.547c16.875-24.188,26.781-53.594,26.781-85.328C405.328,162.859,338.469,96,256,96 s-149.328,66.859-149.328,149.328c0,31.734,9.906,61.141,26.781,85.328H10.672C4.781,330.656,0,335.438,0,341.328 S4.781,352,10.672,352z"></path></g></g></g></svg>