<!-- icon666.com - MILLIONS vector ICONS FREE --><svg version="1.1" id="Layer_1" xmlns="http://www.w3.org/2000/svg" xmlns:xlink="http://www.w3.org/1999/xlink" x="0px" y="0px" viewBox="0 0 511.999 511.999" style="enable-background:new 0 0 511.999 511.999;" xml:space="preserve"><g><g><path fill="currentColor" d="M479.984,256H341.141c0-65.906,12.906-129.828,38.344-190c7.188-16.984,15.344-33.641,24.469-49.766 c1-1.625,1.562-3.531,1.562-5.562C405.516,4.781,400.734,0,394.859,0c-4.062,0-7.625,2.297-9.406,5.656 C343.641,79.594,319.797,165.016,319.797,256H192.203c0-90.984-23.875-176.406-65.656-250.344C124.734,2.297,121.203,0,117.141,0 c-5.906,0-10.688,4.781-10.688,10.672c0,2.031,0.594,3.938,1.594,5.562c9.094,16.125,17.281,32.781,24.469,49.766 c25.438,60.172,38.344,124.094,38.344,190H31.984c-5.875,0-10.656,4.781-10.656,10.672s4.781,10.672,10.656,10.672H170.39 C167.921,335.703,155.202,392.36,132.515,446c-7.188,17-15.375,33.656-24.469,49.781c-1,1.625-1.594,3.516-1.594,5.562 c0,5.891,4.781,10.656,10.688,10.656c4.062,0,7.594-2.281,9.406-5.641c38.5-68.125,61.781-146.016,65.188-229.016h128.5 c3.438,83,26.688,160.891,65.219,229.016c1.781,3.359,5.344,5.641,9.406,5.641c5.875,0,10.656-4.766,10.656-10.656 c0-2.047-0.562-3.938-1.562-5.562C394.828,479.656,386.672,463,379.484,446c-22.688-53.641-35.406-110.297-37.906-168.656h138.406 c5.906,0,10.688-4.781,10.688-10.672S485.891,256,479.984,256z"></path></g></g></svg>
