<!-- icon666.com - MILLIONS vector ICONS FREE --><svg version="1.1" id="Layer_1" xmlns="http://www.w3.org/2000/svg" xmlns:xlink="http://www.w3.org/1999/xlink" x="0px" y="0px" viewBox="0 0 512.006 512.006" style="enable-background:new 0 0 512.006 512.006;" xml:space="preserve"><g><g><path d="M501.347,0H223.998c-5.875,0-10.656,4.773-10.656,10.664s4.781,10.664,10.656,10.664h251.598L184.561,312.372 L78.965,206.792c-1.938-1.945-4.594-3.141-7.562-3.141c-5.875,0-10.656,4.773-10.656,10.664c0,2.945,1.188,5.609,3.125,7.547 l105.596,105.596L3.12,493.796c-4.156,4.156-4.156,10.923,0,15.095c4.156,4.156,10.938,4.156,15.094-0.016l166.347-166.339 L290.156,448.14c1.906,1.938,4.594,3.125,7.531,3.125c5.906,0,10.656-4.781,10.656-10.672c0-2.953-1.188-5.618-3.125-7.548 L199.623,327.458L490.659,36.414v251.59c0.031,5.891,4.781,10.664,10.688,10.664c5.875,0,10.656-4.773,10.656-10.664V10.664 C512.003,4.774,507.222,0,501.347,0z"></path></g></g></svg>