<!-- icon666.com - MILLIONS vector ICONS FREE --><svg version="1.1" id="Layer_1" xmlns="http://www.w3.org/2000/svg" xmlns:xlink="http://www.w3.org/1999/xlink" x="0px" y="0px" viewBox="0 0 512.004 512.004" style="enable-background:new 0 0 512.004 512.004;" xml:space="preserve"><g><g><path d="M508.875,436.037l-30.156-30.156c0,0,0,0-0.016-0.016c-4.156-4.156-10.922-4.156-15.078,0 c-4.172,4.172-4.172,10.922,0,15.094l11.953,11.953H384c-5.875,0-10.656-4.781-10.656-10.656V38.584c0-5.891-4.781-11-10.672-11 c-69.281,0-129.469,38.859-160,95.953V38.584c0-5.891-4.781-11-10.672-11c-69.266,0-129.469,38.859-160,95.953V59.584 c0-11.844-6.422-22.172-15.984-27.703c-1.562-0.906-3.406-1.406-5.344-1.406C4.781,30.475,0,35.256,0,41.147 c0,4.094,2.328,7.656,5.719,9.438c2.969,1.891,4.953,5.219,4.953,9v149.327v202.672c0,5.891,4.781,10.672,10.672,10.672 S32,417.475,32,411.584V208.912c0-21.609,4.234-42.547,12.562-62.266c8.062-19.047,19.609-36.156,34.312-50.859 c14.688-14.703,31.812-26.25,50.859-34.297c16.453-6.969,33.766-11.047,51.609-12.219v159.641v202.672 c0,5.891,4.766,10.672,10.656,10.672c5.89,0,10.672-4.781,10.672-10.672V208.912c0-21.609,4.234-42.547,12.562-62.266 c8.062-19.047,19.594-36.156,34.297-50.859s31.812-26.25,50.875-34.297c16.438-6.969,33.766-11.047,51.594-12.219v372.984 c0,17.672,14.328,32,32,32h91.594l-11.969,11.953c-4.172,4.172-4.172,10.922,0,15.094c4.172,4.156,10.922,4.156,15.078,0 l30.172-30.172C513.047,446.959,513.047,440.209,508.875,436.037z"></path></g></g></svg>