<!-- icon666.com - MILLIONS vector ICONS FREE --><svg version="1.1" id="Layer_1" xmlns="http://www.w3.org/2000/svg" xmlns:xlink="http://www.w3.org/1999/xlink" x="0px" y="0px" viewBox="0 0 512 512" style="enable-background:new 0 0 512 512;" xml:space="preserve"><g><g><path d="M313.641,136.812c47.796-21.89,81.016-70.14,81.016-126.156C394.656,4.766,389.891,0,384,0s-10.672,4.766-10.672,10.657 c0,31.343-12.203,60.812-34.359,82.968C316.796,115.797,287.328,128,256,128c-31.344,0-60.812-12.203-82.968-34.375 c-22.157-22.156-34.375-51.609-34.375-82.953c0,0,0,0,0-0.016C138.657,4.766,133.891,0,128,0c-5.907,0-10.672,4.766-10.672,10.657 c0,56.016,33.204,104.266,81.015,126.156C120.468,161.297,64,234.047,64,320c0,106.031,85.953,192,192,192 c106.031,0,192-85.969,192-192C448,234.047,391.516,161.297,313.641,136.812z M376.672,440.672 c-15.672,15.688-33.938,28-54.25,36.594c-21.031,8.891-43.376,13.391-66.422,13.391c-23.063,0-45.407-4.5-66.438-13.391 c-20.312-8.594-38.562-20.906-54.25-36.594c-15.688-15.672-27.984-33.938-36.578-54.25C89.843,365.391,85.328,343.047,85.328,320 s4.515-45.406,13.406-66.422c8.594-20.328,20.891-38.578,36.578-54.266c15.688-15.672,33.938-27.984,54.25-36.578 c21.031-8.89,43.374-13.406,66.438-13.406c23.046,0,45.391,4.516,66.422,13.406c20.312,8.594,38.578,20.906,54.25,36.578 C392.36,215,404.656,233.25,413.25,253.578c8.906,21.016,13.406,43.375,13.406,66.422s-4.5,45.391-13.406,66.422 C404.656,406.734,392.359,425,376.672,440.672z"></path></g></g></svg>