<!-- icon666.com - MILLIONS vector ICONS FREE --><svg version="1.1" id="Layer_1" xmlns="http://www.w3.org/2000/svg" xmlns:xlink="http://www.w3.org/1999/xlink" x="0px" y="0px" viewBox="0 0 512 512" style="enable-background:new 0 0 512 512;" xml:space="preserve"><g><g><path d="M512,181.336h-0.016c-0.453-43.805-36.094-79.18-80-79.18c-23.172,0-44.047,9.859-58.656,25.609V42.711 c0-5.891-4.766-10.711-10.656-10.711c-69.281,0-129.469,38.852-160,95.945V42.711C202.672,36.82,197.891,32,192,32 c-69.281,0-129.469,38.852-160,95.945V64c0-11.836-6.453-22.141-16-27.672c-1.578-0.914-3.391-1.438-5.328-1.438 C4.781,34.891,0,39.664,0,45.555C0,49.656,2.312,53.219,5.719,55c2.969,1.898,4.953,5.219,4.953,9v149.336V416 c0,5.891,4.766,10.672,10.656,10.672S32,421.891,32,416V213.336c0-21.609,4.219-42.562,12.562-62.273 c8.062-19.055,19.594-36.164,34.297-50.867s31.812-26.242,50.859-34.297c16.453-6.961,33.781-11.039,51.609-12.211v159.648V416 c0,5.891,4.781,10.672,10.672,10.672s10.672-4.781,10.672-10.672V213.336c0-21.609,4.219-42.562,12.562-62.273 c8.047-19.055,19.594-36.164,34.297-50.867s31.812-26.242,50.859-34.297c16.453-6.961,33.766-11.039,51.609-12.211V396.86 c-1.969,0.906-3.938,1.781-5.922,2.609c-22.25,9.422-45.562,15.312-69.547,17.578c-5.516,0.406-9.859,5-9.859,10.625 c0,5.875,4.766,10.656,10.656,10.656c0,0,0.266,0,0.391-0.016c25.578-2.484,51.453-8.828,74.281-18.203V448 c0,17.672,14.328,32,32,32c5.891,0,10.672-4.766,10.672-10.672c0-5.875-4.781-10.656-10.672-10.656 c-5.875,0-10.672-4.781-10.672-10.672v-37.828C455.75,367.078,512,280.773,512,181.336z M373.328,181.336 c0.453-31.977,26.594-57.844,58.656-57.844c32.078,0,58.219,25.867,58.656,57.844h0.031c0,31.969-6.266,62.969-18.609,92.141 c-11.906,28.195-28.984,53.508-50.734,75.258c-14.484,14.469-30.547,26.875-48,37.062V181.336z"></path></g></g></svg>